<?xml version="1.0" encoding="UTF-8" standalone="no"?>
<!-- Created with Inkscape (http://www.inkscape.org/) -->

<svg
   xmlns:dc="http://purl.org/dc/elements/1.1/"
   xmlns:cc="http://creativecommons.org/ns#"
   xmlns:rdf="http://www.w3.org/1999/02/22-rdf-syntax-ns#"
   xmlns:svg="http://www.w3.org/2000/svg"
   xmlns="http://www.w3.org/2000/svg"
   xmlns:sodipodi="http://sodipodi.sourceforge.net/DTD/sodipodi-0.dtd"
   xmlns:inkscape="http://www.inkscape.org/namespaces/inkscape"
   width="1052.3622"
   height="744.09448"
   id="svg6158"
   version="1.1"
   inkscape:version="0.48.1 r9760"
   sodipodi:docname="pscxr_g.svg"
   inkscape:export-filename="/home/bmf/pic/pscxr_g.png"
   inkscape:export-xdpi="29"
   inkscape:export-ydpi="29">
  <defs
     id="defs6160">
    <filter
       color-interpolation-filters="sRGB"
       inkscape:collect="always"
       id="filter6718-3-6-8-4">
      <feGaussianBlur
         inkscape:collect="always"
         stdDeviation="0.22863816"
         id="feGaussianBlur6720-4-8-7-1" />
    </filter>
    <filter
       inkscape:collect="always"
       id="filter7475">
      <feGaussianBlur
         inkscape:collect="always"
         stdDeviation="6.1962856"
         id="feGaussianBlur7477" />
    </filter>
    <filter
       inkscape:collect="always"
       id="filter7479"
       x="-0.18162521"
       width="1.3632504"
       y="-0.079487616"
       height="1.1589752">
      <feGaussianBlur
         inkscape:collect="always"
         stdDeviation="11.949978"
         id="feGaussianBlur7481" />
    </filter>
    <filter
       inkscape:collect="always"
       id="filter7483"
       x="-0.15261337"
       width="1.3052267"
       y="-0.086700839"
       height="1.1734017">
      <feGaussianBlur
         inkscape:collect="always"
         stdDeviation="10.041152"
         id="feGaussianBlur7485" />
    </filter>
    <filter
       inkscape:collect="always"
       id="filter7487"
       x="-0.12108347"
       width="1.2421669"
       y="-0.052991745"
       height="1.1059835">
      <feGaussianBlur
         inkscape:collect="always"
         stdDeviation="7.9666533"
         id="feGaussianBlur7489" />
    </filter>
    <filter
       inkscape:collect="always"
       id="filter7491"
       x="-0.20853266"
       width="1.4170653"
       y="-0.091263556"
       height="1.1825271">
      <feGaussianBlur
         inkscape:collect="always"
         stdDeviation="13.720347"
         id="feGaussianBlur7493" />
    </filter>
    <filter
       inkscape:collect="always"
       id="filter7495"
       x="-0.10737969"
       width="1.2147594"
       y="-0.25737046"
       height="1.5147409">
      <feGaussianBlur
         inkscape:collect="always"
         stdDeviation="16.133909"
         id="feGaussianBlur7497" />
    </filter>
    <filter
       inkscape:collect="always"
       id="filter7499">
      <feGaussianBlur
         inkscape:collect="always"
         stdDeviation="4.8685104"
         id="feGaussianBlur7501" />
    </filter>
    <filter
       inkscape:collect="always"
       id="filter7566"
       x="-0.11394"
       width="1.22788"
       y="-0.15422894"
       height="1.3084579">
      <feGaussianBlur
         inkscape:collect="always"
         stdDeviation="12.070001"
         id="feGaussianBlur7568" />
    </filter>
    <filter
       inkscape:collect="always"
       id="filter7614"
       x="-0.45429696"
       width="1.9085939"
       y="-0.24149993"
       height="1.4829999">
      <feGaussianBlur
         inkscape:collect="always"
         stdDeviation="27.634464"
         id="feGaussianBlur7616" />
    </filter>
  </defs>
  <sodipodi:namedview
     id="base"
     pagecolor="#ffffff"
     bordercolor="#666666"
     borderopacity="1.0"
     inkscape:pageopacity="0.0"
     inkscape:pageshadow="2"
     inkscape:zoom="0.24748737"
     inkscape:cx="502.27667"
     inkscape:cy="557.46263"
     inkscape:document-units="px"
     inkscape:current-layer="layer1"
     showgrid="false"
     inkscape:window-width="1366"
     inkscape:window-height="768"
     inkscape:window-x="0"
     inkscape:window-y="0"
     inkscape:window-maximized="0" />
  <metadata
     id="metadata6163">
    <rdf:RDF>
      <cc:Work
         rdf:about="">
        <dc:format>image/svg+xml</dc:format>
        <dc:type
           rdf:resource="http://purl.org/dc/dcmitype/StillImage" />
        <dc:title />
      </cc:Work>
    </rdf:RDF>
  </metadata>
  <g
     inkscape:label="Layer 1"
     inkscape:groupmode="layer"
     id="layer1"
     transform="translate(0,-308.2677)">
    <rect
       style="fill:#cccccc;fill-opacity:1;stroke:none"
       id="rect7618"
       width="1154.2858"
       height="842.85712"
       x="-42.366932"
       y="277.2991" />
    <path
       style="opacity:0.22491347000000000;fill:#808080;fill-opacity:1;stroke:none;filter:url(#filter7475)"
       d="m 120.78926,516.83922 83.62101,-232.14402 74.2863,128.66629 -83.621,232.14402 z"
       id="rect6283"
       inkscape:connector-curvature="0"
       sodipodi:nodetypes="ccccc" />
    <path
       style="opacity:0.34948096;fill:#808080;fill-opacity:1;stroke:none"
       d="m 68.189229,771.24389 132.192401,33.5703 74.2864,128.6663 -132.1925,-33.5703 z"
       id="rect6283-7"
       inkscape:connector-curvature="0"
       sodipodi:nodetypes="ccccc" />
    <g
       id="g7797"
       transform="translate(1224.3049,177.78685)">
      <g
         id="g7782">
        <path
           style="fill:#ffffff;stroke:#000000;stroke-width:1.21484709;stroke-miterlimit:4;stroke-opacity:1"
           d="m -856.93179,264.94714 178.38627,20.38916 -177.31283,236.39021 -194.23375,-22.10202 z"
           id="rect4859-5"
           inkscape:connector-curvature="0"
           sodipodi:nodetypes="ccccc" />
        <path
           sodipodi:type="arc"
           style="opacity:0.60899652;fill:#000000;stroke:#000000;stroke-width:1.04016209;stroke-miterlimit:4;stroke-opacity:1;stroke-dasharray:none"
           id="path4839-8"
           sodipodi:cx="-489.36575"
           sodipodi:cy="143.41386"
           sodipodi:rx="199.63297"
           sodipodi:ry="104.23314"
           d="m -289.73279,143.41386 c 0,57.56638 -89.37872,104.23314 -199.63296,104.23314 -110.25425,0 -199.63297,-46.66676 -199.63297,-104.23314 0,-57.566369 89.37872,-104.233135 199.63297,-104.233135 110.25424,0 199.63296,46.666766 199.63296,104.233135 z"
           transform="matrix(1.1865902,0,0,1.0458012,-12.599043,268.14924)" />
        <path
           style="opacity:0.60899652;fill:#ffffff;stroke:#000000;stroke-width:1.21484709;stroke-miterlimit:4;stroke-opacity:1"
           d="m -336.08784,333.02 178.3863,20.38918 -153.45515,236.82355 -195.5561,-23.60849 z"
           id="rect4859-6-9"
           inkscape:connector-curvature="0"
           sodipodi:nodetypes="ccccc" />
        <path
           style="opacity:0.60899652;fill:none;stroke:#000000;stroke-width:1.21484709;stroke-miterlimit:4;stroke-opacity:1"
           d="m -686.86162,296.93659 347.26743,40.91245 -168.47872,229.31178 -347.93812,-46.14387 z"
           id="rect4859-6-8-7"
           inkscape:connector-curvature="0"
           sodipodi:nodetypes="ccccc" />
        <path
           style="fill:#ffffff;stroke:#000000;stroke-width:1.21484709;stroke-miterlimit:4;stroke-opacity:1"
           d="m -856.42856,521.66564 349.96531,45.82958 -0.80483,105.6355 -348.7811,-41.96254 z"
           id="rect4859-6-8-8-5"
           inkscape:connector-curvature="0"
           sodipodi:nodetypes="ccccc" />
        <path
           style="fill:#ffffff;stroke:#000000;stroke-width:0.93057621;stroke-miterlimit:4;stroke-opacity:1"
           d="m -506.71279,568.03174 193.78103,22.18046 -0.70781,115.41753 -193.07322,-21.85492 z"
           id="rect4859-6-8-8-4-38"
           inkscape:connector-curvature="0"
           sodipodi:nodetypes="ccccc" />
        <path
           style="fill:#ffffff;stroke:#000000;stroke-width:0.93057621;stroke-miterlimit:4;stroke-opacity:1"
           d="m -1049.8935,498.83726 193.78101,22.18046 -0.70781,115.41756 -193.0732,-21.85495 z"
           id="rect4859-6-8-8-4-3-8"
           inkscape:connector-curvature="0"
           sodipodi:nodetypes="ccccc" />
        <path
           style="fill:#ffffff;stroke:#000000;stroke-width:1.21484709;stroke-miterlimit:4;stroke-opacity:1"
           d="m -157.41452,356.09194 7.7613,114.8231 -163.11315,233.60424 0.82357,-114.8231 z"
           id="rect4859-6-1-3"
           inkscape:connector-curvature="0"
           sodipodi:nodetypes="ccccc" />
        <path
           style="opacity:0.60899652;fill:#000000;stroke:#000000;stroke-width:0.40227288;stroke-miterlimit:4;stroke-opacity:0.49806949"
           d="m -829.38908,600.84259 117.14168,14.76814 0.0509,17.01513 -117.19265,-15.4661 z"
           id="rect4859-6-8-8-4-3-4-1"
           inkscape:connector-curvature="0"
           sodipodi:nodetypes="ccccc" />
        <path
           style="opacity:0.60899652;fill:#000000;stroke:#000000;stroke-width:0.40227288;stroke-miterlimit:4;stroke-opacity:0.49806949"
           d="m -830.55281,570.28135 117.14167,14.76811 0.0509,17.01513 -117.19266,-15.46607 z"
           id="rect4859-6-8-8-4-3-4-9-8"
           inkscape:connector-curvature="0"
           sodipodi:nodetypes="ccccc" />
        <path
           style="opacity:0.60899652;fill:#000000;stroke:#000000;stroke-width:0.40227288;stroke-miterlimit:4;stroke-opacity:0.49806949"
           d="m -641.02839,621.22582 117.1417,14.76811 0.0509,17.01516 -117.19265,-15.4661 z"
           id="rect4859-6-8-8-4-3-4-2-9"
           inkscape:connector-curvature="0"
           sodipodi:nodetypes="ccccc" />
        <path
           style="opacity:0.60899652;fill:#000000;stroke:#000000;stroke-width:0.40227288;stroke-miterlimit:4;stroke-opacity:0.49806949"
           d="m -642.1921,590.66456 117.14167,14.76813 0.0509,17.01514 -117.19268,-15.4661 z"
           id="rect4859-6-8-8-4-3-4-9-0-6"
           inkscape:connector-curvature="0"
           sodipodi:nodetypes="ccccc" />
        <path
           sodipodi:type="arc"
           style="fill:#ffffff;stroke:#000000;stroke-width:1.04016209;stroke-miterlimit:4;stroke-opacity:1;stroke-dasharray:none"
           id="path4839-6-4"
           sodipodi:cx="-489.36575"
           sodipodi:cy="143.41386"
           sodipodi:rx="199.63297"
           sodipodi:ry="104.23314"
           d="m -289.73279,143.41386 c 0,57.56638 -89.37872,104.23314 -199.63296,104.23314 -110.25425,0 -199.63297,-46.66676 -199.63297,-104.23314 0,-57.566369 89.37872,-104.233135 199.63297,-104.233135 110.25424,0 199.63296,46.666766 199.63296,104.233135 z"
           transform="matrix(1.1865902,0,0,1.0458012,-11.760429,257.45179)" />
      </g>
      <g
         transform="translate(-234.28571,-377.14286)"
         id="g7740">
        <path
           style="fill:#ffffff;fill-opacity:1;stroke:#000000;stroke-width:1.76591539;stroke-opacity:1"
           d="m -944.99893,832.94853 c -9.26986,3.7317 -13.47557,14.84812 -9.42434,24.91093 l 7.58464,18.83854 c -13.32508,23.26188 -16.57183,52.94174 -6.81648,81.33542 l 23.80096,106.85228 c 0.80312,5.5758 2.28984,11.1558 4.50416,16.6559 13.75824,34.1781 50.39226,51.5885 81.87671,38.9138 20.26396,-8.1579 33.43564,-26.8159 36.58339,-48.1789 l 25.77057,-114.34506 106.60479,-42.85152 97.80752,64.59563 c 17.07125,13.22326 39.49639,17.55113 59.76046,9.39337 31.48449,-12.67455 45.83643,-50.61097 32.07733,-84.78868 -2.2143,-5.50006 -5.00834,-10.55386 -8.29242,-15.13102 l -56.87128,-93.53903 c -12.63874,-27.23277 -35.54368,-46.38467 -61.26921,-53.92591 l -7.58399,-18.83876 c -4.05099,-10.06292 -14.78555,-15.16469 -24.05543,-11.4329 l -61.22593,24.64806 c -9.26985,3.73185 -13.42421,14.82749 -9.37317,24.89036 l 6.80095,16.89378 c -0.37443,0.59847 -0.75665,1.19807 -1.11717,1.80588 l -64.80943,26.0906 -0.0223,-0.0559 -78.22185,31.49005 c -0.68114,-0.1885 -1.37203,-0.35595 -2.05683,-0.52808 l -6.80081,-16.89378 c -4.05123,-10.06284 -14.73444,-15.18528 -24.00429,-11.45349 l -61.22607,24.64807 z"
           id="path59522-1-9-0-1-3-3"
           inkscape:connector-curvature="0"
           sodipodi:nodetypes="cscccssccccsscccssssccccccsscc" />
        <path
           sodipodi:type="arc"
           style="opacity:0.60899652;fill:#000000;stroke:none;filter:url(#filter6718-3-6-8-4)"
           id="path59642-7-7-8-8-9-3"
           sodipodi:cx="31.516819"
           sodipodi:cy="215.85326"
           sodipodi:rx="11.162207"
           sodipodi:ry="11.162207"
           d="m 42.679026,215.85326 c 0,6.16471 -4.99749,11.1622 -11.162207,11.1622 -6.164717,0 -11.162207,-4.99749 -11.162207,-11.1622 0,-6.16472 4.99749,-11.16221 11.162207,-11.16221 6.164717,0 11.162207,4.99749 11.162207,11.16221 z"
           transform="matrix(1.634247,-0.66909931,0.66909931,1.634247,-817.43997,534.11671)" />
        <path
           sodipodi:type="arc"
           style="opacity:0.60899652;fill:#000000;stroke:none"
           id="path59642-7-8-1-9-5-4-8-3"
           sodipodi:cx="31.516819"
           sodipodi:cy="215.85326"
           sodipodi:rx="11.162207"
           sodipodi:ry="11.162207"
           d="m 42.679026,215.85326 c 0,6.16471 -4.99749,11.1622 -11.162207,11.1622 -6.164717,0 -11.162207,-4.99749 -11.162207,-11.1622 0,-6.16472 4.99749,-11.16221 11.162207,-11.16221 6.164717,0 11.162207,4.99749 11.162207,11.16221 z"
           transform="matrix(1.634247,-0.66909931,0.66909931,1.634247,-846.78048,457.26506)" />
        <path
           sodipodi:type="arc"
           style="opacity:0.60899652;fill:#000000;stroke:none"
           id="path59642-7-8-1-0-2-1-8"
           sodipodi:cx="31.516819"
           sodipodi:cy="215.85326"
           sodipodi:rx="11.162207"
           sodipodi:ry="11.162207"
           d="m 42.679026,215.85326 c 0,6.16471 -4.99749,11.1622 -11.162207,11.1622 -6.164717,0 -11.162207,-4.99749 -11.162207,-11.1622 0,-6.16472 4.99749,-11.16221 11.162207,-11.16221 6.164717,0 11.162207,4.99749 11.162207,11.16221 z"
           transform="matrix(1.634247,-0.66909931,0.66909931,1.634247,-872.00223,510.97809)" />
        <path
           sodipodi:type="arc"
           style="opacity:0.60899652;fill:#000000;stroke:none"
           id="path59642-7-8-1-1-7-3-0-0"
           sodipodi:cx="31.516819"
           sodipodi:cy="215.85326"
           sodipodi:rx="11.162207"
           sodipodi:ry="11.162207"
           d="m 42.679026,215.85326 c 0,6.16471 -4.99749,11.1622 -11.162207,11.1622 -6.164717,0 -11.162207,-4.99749 -11.162207,-11.1622 0,-6.16472 4.99749,-11.16221 11.162207,-11.16221 6.164717,0 11.162207,4.99749 11.162207,11.16221 z"
           transform="matrix(1.634247,-0.66909931,0.66909931,1.634247,-792.73461,479.20298)" />
        <path
           style="opacity:0.60899652;fill:#000000;stroke:none"
           d="m -906.47637,876.92677 30.39253,-12.44335 12.4408,30.38655 -8.8461,22.64375 -20.63789,-9.2433 z"
           id="rect59758-1-9-0-0-4"
           inkscape:connector-curvature="0"
           sodipodi:nodetypes="cccccc" />
        <path
           style="opacity:0.60899652;fill:#000000;stroke:none"
           d="m -927.16816,931.21493 12.6684,30.94194 28.40321,-11.62897 11.44,-23.52444 -24.18325,-7.05896 z"
           id="rect59758-2-4-0-7-0-6-8"
           inkscape:connector-curvature="0"
           sodipodi:nodetypes="cccccc" />
        <path
           style="opacity:0.60899652;fill:#000000;stroke:none"
           d="m -862.99935,984.21493 31.88542,-13.0547 -12.42176,-30.83742 -22.96774,-9.17529 -8.82226,22.6338 z"
           id="rect59758-2-6-9-5-3-8"
           inkscape:connector-curvature="0"
           sodipodi:nodetypes="cccccc" />
        <path
           style="opacity:0.60899652;fill:#000000;stroke:none"
           d="m -809.74559,919.74228 -12.66834,-30.94194 -28.40321,11.629 -11.44016,23.52447 24.18321,7.05894 z"
           id="rect59758-2-4-0-8-7-9-8-8"
           inkscape:connector-curvature="0"
           sodipodi:nodetypes="cccccc" />
        <path
           style="opacity:0.60899652;fill:#000000;stroke:#a1a1a1;stroke-width:1.70885658;stroke-opacity:0.49806949"
           d="m -729.97776,903.00726 30.77855,-4.66758 -25.4928,17.57782 z"
           id="rect5188-2-1-7-4-9"
           inkscape:connector-curvature="0"
           sodipodi:nodetypes="cccc" />
        <rect
           style="opacity:0.60899652;fill:#000000;stroke:none"
           id="rect5188-8-8-1-9-6-7"
           width="24.171648"
           height="12.469001"
           x="-1062.7875"
           y="558.64429"
           transform="matrix(0.92543901,-0.37889661,0.37889661,0.92543901,0,0)" />
        <path
           style="opacity:0.41512912;fill:#ffffff;fill-opacity:1;stroke:none"
           d="m -661.25486,744.19487 c 44.12173,-13.38372 90.73913,11.53434 104.12291,55.65609 -22.96302,-49.92899 -67.99695,-63.529 -102.71056,-52.81745 -34.36786,10.60488 -66.26274,46.62623 -57.0684,101.28427 -13.38375,-44.12173 11.53436,-90.73916 55.65605,-104.12291 z"
           id="path59642-1-2-2-2-3-3-1-7"
           inkscape:connector-curvature="0"
           sodipodi:nodetypes="scscs" />
      </g>
    </g>
    <path
       style="opacity:0.22491347;fill:#808080;fill-opacity:1;stroke:none"
       d="m 395.33206,749.81525 83.621,-232.14393 74.2863,128.66633 -57.90671,149.2868 z"
       id="rect6283-6"
       inkscape:connector-curvature="0"
       sodipodi:nodetypes="ccccc" />
    <path
       style="opacity:0.39100348;fill:#808080;fill-opacity:1;stroke:none"
       d="M 297.315,588.07999 543.54254,572.10138 455.21641,691.5667 208.98887,707.54531 z"
       id="rect6283-4"
       inkscape:connector-curvature="0"
       sodipodi:nodetypes="ccccc" />
    <path
       style="opacity:0.39100348;fill:#808080;fill-opacity:1;stroke:none"
       d="M 108.91954,678.15542 130.89811,812.76128 42.572014,932.22669 20.593404,797.62074 z"
       id="rect6283-7-3"
       inkscape:connector-curvature="0"
       sodipodi:nodetypes="ccccc" />
    <path
       style="opacity:0.39100348;fill:#808080;fill-opacity:1;stroke:none"
       d="m 155.67092,917.99805 246.22746,-15.97857 -88.32617,119.46532 -159.99267,6.487 z"
       id="rect6283-6-0"
       inkscape:connector-curvature="0"
       sodipodi:nodetypes="ccccc" />
    <path
       style="opacity:0.22491347;fill:#808080;fill-opacity:1;stroke:none"
       d="m 749.61778,704.10104 83.621,-232.14402 74.2863,128.66629 -83.621,232.14402 z"
       id="rect6283-3"
       inkscape:connector-curvature="0"
       sodipodi:nodetypes="ccccc" />
    <path
       style="opacity:0.39100348;fill:#808080;fill-opacity:1;stroke:none"
       d="M 552.47787,789.19025 798.70541,773.21164 710.37928,892.67696 464.15174,908.65557 z"
       id="rect6283-4-0"
       inkscape:connector-curvature="0"
       sodipodi:nodetypes="ccccc" />
    <path
       style="opacity:0.39100348;fill:#808080;fill-opacity:1;stroke:none"
       d="m 495.07482,413.93602 246.22746,-15.97857 -88.32617,119.46528 -159.99267,6.487 z"
       id="rect6283-6-0-9"
       inkscape:connector-curvature="0"
       sodipodi:nodetypes="ccccc" />
    <path
       style="opacity:0.34948096;fill:#808080;fill-opacity:1;stroke:none"
       d="m 693.90346,845.5296 132.1924,33.5703 74.2864,128.6663 -132.1925,-33.57031 z"
       id="rect6283-7-2"
       inkscape:connector-curvature="0"
       sodipodi:nodetypes="ccccc" />
    <path
       style="opacity:0.39100348;fill:#808080;fill-opacity:1;stroke:none"
       d="m 378.88807,322.4694 21.97858,134.60586 -88.3261,119.46541 -21.97861,-134.60595 z"
       id="rect6283-7-3-5"
       inkscape:connector-curvature="0"
       sodipodi:nodetypes="ccccc" />
    <path
       style="opacity:0.22491347;fill:#808080;fill-opacity:1;stroke:none;filter:url(#filter7487)"
       d="M 985.28672,847.73171 901.66567,1079.8757 827.37938,951.20941 911.00037,719.0654 z"
       id="rect6283-40"
       inkscape:connector-curvature="0"
       sodipodi:nodetypes="ccccc" />
    <path
       style="opacity:0.22491347;fill:#808080;fill-opacity:1;stroke:none"
       d="m 770.25369,536.02327 -83.621,232.14391 -74.2863,-128.66633 57.90671,-149.28678 z"
       id="rect6283-6-5"
       inkscape:connector-curvature="0"
       sodipodi:nodetypes="ccccc" />
    <path
       style="opacity:0.39100348;fill:#808080;fill-opacity:1;stroke:none"
       d="m 1007.0577,527.84045 -246.22748,15.9786 88.32617,-119.4654 159.99271,-6.4869 z"
       id="rect6283-6-0-94"
       inkscape:connector-curvature="0"
       sodipodi:nodetypes="ccccc" />
    <path
       style="opacity:0.22491347000000000;fill:#808080;fill-opacity:1;stroke:none;filter:url(#filter7479)"
       d="m 404.53939,738.88031 -83.621,232.14398 -74.2863,-128.6662 83.621,-232.14405 z"
       id="rect6283-3-6"
       inkscape:connector-curvature="0"
       sodipodi:nodetypes="ccccc" />
    <path
       style="opacity:0.39100348;fill:#808080;fill-opacity:1;stroke:none"
       d="m 616.22521,977.61679 -246.22746,15.9785 88.32617,-119.4652 159.99267,-6.487 z"
       id="rect6283-6-0-9-9"
       inkscape:connector-curvature="0"
       sodipodi:nodetypes="ccccc" />
    <path
       style="opacity:0.22491347000000000;fill:#808080;fill-opacity:1;stroke:none;filter:url(#filter7491)"
       d="m 638.1892,498.38676 83.62101,-232.14402 74.2863,128.66629 -83.621,232.14402 z"
       id="rect6283-2"
       inkscape:connector-curvature="0"
       sodipodi:nodetypes="ccccc" />
    <path
       style="opacity:0.39100348;fill:#808080;fill-opacity:1;stroke:none"
       d="m 170.63944,665.07402 -246.227447,15.9786 88.32617,-119.4654 159.992677,-6.4869 z"
       id="rect6283-6-0-94-2"
       inkscape:connector-curvature="0"
       sodipodi:nodetypes="ccccc" />
    <path
       style="opacity:0.39100348;fill:#808080;fill-opacity:1;stroke:none"
       d="m 1079.2109,990.78831 -246.22747,15.97859 88.32618,-119.46539 159.99269,-6.4869 z"
       id="rect6283-6-0-94-2-4"
       inkscape:connector-curvature="0"
       sodipodi:nodetypes="ccccc" />
    <path
       style="opacity:0.22491347000000000;fill:#808080;fill-opacity:1;stroke:none;filter:url(#filter7499)"
       d="M 43.903491,1032.6725 127.5245,800.52846 201.8108,929.19475 118.1898,1161.3388 z"
       id="rect6283-77"
       inkscape:connector-curvature="0"
       sodipodi:nodetypes="ccccc" />
    <path
       style="opacity:0.22491347000000000;fill:#808080;fill-opacity:1;stroke:none;filter:url(#filter7483)"
       d="m 555.33206,1059.8153 83.621,-232.14397 74.2863,128.66633 -57.90671,149.28674 z"
       id="rect6283-6-54"
       inkscape:connector-curvature="0"
       sodipodi:nodetypes="ccccc" />
    <path
       style="opacity:0.22491347;fill:#808080;fill-opacity:1;stroke:none"
       d="m 395.33207,456.95812 83.621,-232.14393 74.2863,128.66633 -57.90671,149.2868 z"
       id="rect6283-6-8"
       inkscape:connector-curvature="0"
       sodipodi:nodetypes="ccccc" />
    <path
       style="opacity:0.22491347000000000;fill:#808080;fill-opacity:1;stroke:none;filter:url(#filter7495)"
       d="m 911.54695,517.13718 237.32575,67.52643 -123.2768,82.92356 -237.32569,-67.52634 z"
       id="rect6283-40-1"
       inkscape:connector-curvature="0"
       sodipodi:nodetypes="ccccc" />
    <path
       style="opacity:0.22491347;fill:#808080;fill-opacity:1;stroke:none"
       d="M 34.747887,487.24861 -40.693099,252.31888 96.68069,308.90432 172.12168,543.83404 z"
       id="rect6283-28"
       inkscape:connector-curvature="0"
       sodipodi:nodetypes="ccccc" />
    <path
       style="opacity:0.39100348;fill:#808080;fill-opacity:1;stroke:none"
       d="m 901.7452,242.4694 21.97858,134.60586 -88.3261,119.46541 -21.97861,-134.60595 z"
       id="rect6283-7-3-5-0"
       inkscape:connector-curvature="0"
       sodipodi:nodetypes="ccccc" />
    <path
       style="opacity:0.22145329;fill:#808080;fill-opacity:1;stroke:none;filter:url(#filter7566)"
       d="M 973.89829,316.52206 1141.4053,497.69796 992.98266,504.34674 887.16621,384.16929 z"
       id="rect6283-6-0-3"
       inkscape:connector-curvature="0"
       sodipodi:nodetypes="ccccc" />
    <path
       style="opacity:0.39100348;fill:#808080;fill-opacity:1;stroke:none"
       d="m 381.57064,1189.9928 -65.54287,-237.88115 134.88519,62.28515 38.77355,155.3587 z"
       id="rect6283-6-0-9-9-2"
       inkscape:connector-curvature="0"
       sodipodi:nodetypes="ccccc"
       inkscape:transform-center-x="-68.571429"
       inkscape:transform-center-y="20" />
    <path
       style="opacity:0.46712803000000003;fill:#808080;fill-opacity:1;stroke:none;filter:url(#filter7614)"
       d="m 605.17088,1151.0463 58.42419,-239.72889 87.56559,120.02379 -41.67955,154.6045 z"
       id="rect6283-6-0-9-9-2-8"
       inkscape:connector-curvature="0"
       sodipodi:nodetypes="ccccc"
       inkscape:transform-center-x="-46.737199"
       inkscape:transform-center-y="41.98365" />
    <g
       id="g7620"
       transform="matrix(0.75640269,0,0,0.74307624,109.7639,181.08428)">
      <text
         transform="scale(0.76414339,1.3086549)"
         sodipodi:linespacing="125%"
         id="text7503"
         y="673.54907"
         x="161.40753"
         style="font-size:401.63049316px;font-style:normal;font-weight:normal;line-height:125%;letter-spacing:0px;word-spacing:0px;fill:#000000;fill-opacity:1;stroke:none;font-family:Sans"
         xml:space="preserve"><tspan
           style="font-style:normal;font-variant:normal;font-weight:bold;font-stretch:normal;fill:#000000;font-family:Impact;-inkscape-font-specification:Impact Bold"
           y="673.54907"
           x="161.40753"
           id="tspan7505"
           sodipodi:role="line">PCS   R</tspan></text>
      <text
         transform="scale(0.60328269,1.6575977)"
         sodipodi:linespacing="125%"
         id="text7507"
         y="595.22754"
         x="1013.5027"
         style="font-size:569.46923828px;font-style:normal;font-weight:normal;line-height:125%;letter-spacing:0px;word-spacing:0px;fill:#aa0000;fill-opacity:1;stroke:none;font-family:Sans"
         xml:space="preserve"><tspan
           style="font-style:normal;font-variant:normal;font-weight:bold;font-stretch:normal;fill:#aa0000;font-family:Impact;-inkscape-font-specification:Impact Bold"
           y="595.22754"
           x="1013.5027"
           id="tspan7509"
           sodipodi:role="line">x</tspan></text>
    </g>
  </g>
</svg>
